<svg version="1.1" id="Layer_1" xmlns="http://www.w3.org/2000/svg" xmlns:xlink="http://www.w3.org/1999/xlink" x="0px" y="0px"
	 width="100%" viewBox="0 0 300 271" enable-background="new 0 0 300 271" xml:space="preserve">
<path fill="#FFFFFF" opacity="0.000000" stroke="none" 
	d="
M204.000000,272.000000 
	C136.000015,272.000000 68.500015,272.000000 1.000018,272.000000 
	C1.000012,181.666687 1.000012,91.333374 1.000006,1.000042 
	C100.999969,1.000028 200.999939,1.000028 300.999939,1.000014 
	C300.999939,91.333290 300.999939,181.666580 300.999969,271.999939 
	C268.833344,272.000000 236.666672,272.000000 204.000000,272.000000 
M56.239418,208.251831 
	C62.542995,218.233887 68.895897,228.185242 75.133179,238.208542 
	C79.444969,245.137573 86.068665,248.344452 93.695343,247.802048 
	C102.741524,247.158691 112.004379,246.072433 120.613777,243.385345 
	C156.580261,232.159698 188.465851,212.951050 218.893890,191.203064 
	C236.391632,178.696838 252.824188,164.934753 266.856537,148.465195 
	C274.931122,138.988190 278.322815,128.751328 273.540527,116.703308 
	C272.375336,113.767899 271.177521,110.825607 269.722046,108.028351 
	C257.461060,84.464111 240.667953,64.223152 222.270248,45.387627 
	C212.753799,35.644726 200.678619,29.398855 186.961533,27.034403 
	C167.069931,23.605633 148.828644,28.634207 132.188385,39.090862 
	C101.199478,58.564137 70.581612,78.627792 39.804497,98.438232 
	C30.671753,104.316734 25.910870,112.801590 26.197134,123.525726 
	C26.395002,130.938309 27.174280,138.485886 28.912035,145.678818 
	C34.269123,167.852905 44.625374,187.954346 56.239418,208.251831 
z"/>
<path fill="#CB4661" opacity="1.000000" stroke="none" 
	d="
M56.054611,207.937256 
	C44.625374,187.954346 34.269123,167.852905 28.912035,145.678818 
	C27.174280,138.485886 26.395002,130.938309 26.197134,123.525726 
	C25.910870,112.801590 30.671753,104.316734 39.804497,98.438232 
	C70.581612,78.627792 101.199478,58.564137 132.188385,39.090862 
	C148.828644,28.634207 167.069931,23.605633 186.961533,27.034403 
	C200.678619,29.398855 212.753799,35.644726 222.270248,45.387627 
	C240.667953,64.223152 257.461060,84.464111 269.722046,108.028351 
	C271.177521,110.825607 272.375336,113.767899 273.540527,116.703308 
	C278.322815,128.751328 274.931122,138.988190 266.856537,148.465195 
	C252.824188,164.934753 236.391632,178.696838 218.893890,191.203064 
	C188.465851,212.951050 156.580261,232.159698 120.613777,243.385345 
	C112.004379,246.072433 102.741524,247.158691 93.695343,247.802048 
	C86.068665,248.344452 79.444969,245.137573 75.133179,238.208542 
	C68.895897,228.185242 62.542995,218.233887 56.054611,207.937256 
M162.761429,131.382843 
	C164.288635,127.833855 165.815842,124.284866 167.367554,120.678947 
	C163.258591,119.081276 161.329407,120.212410 160.002853,123.464630 
	C157.857498,128.724243 155.384201,133.850098 152.588562,140.055267 
	C149.837509,133.832748 147.442673,128.900848 145.472534,123.804756 
	C143.924973,119.801697 141.483002,119.073517 137.503296,120.609871 
	C138.219269,122.362732 138.803543,123.888840 139.459839,125.383324 
	C142.337357,131.935883 145.312408,138.446884 148.099030,145.037659 
	C149.898468,149.293579 145.232635,157.739487 141.266632,158.027878 
	C139.848572,158.130997 138.494949,159.120285 137.111923,159.705093 
	C138.521759,160.826584 139.804123,162.656128 141.365250,162.937134 
	C146.100494,163.789459 148.855957,160.511230 150.691956,156.874313 
	C154.814026,148.708939 158.572739,140.360138 162.761429,131.382843 
M182.485428,131.982010 
	C180.124619,130.396271 174.941986,131.004395 176.202591,126.628990 
	C177.282349,122.881294 181.031036,124.736801 183.939560,125.432457 
	C184.828354,125.645035 186.476074,124.480461 187.047501,123.515167 
	C187.363647,122.981117 186.323074,120.798897 185.632294,120.659821 
	C182.605988,120.050537 179.069519,118.873100 176.508316,119.890671 
	C173.706299,121.003937 170.667923,123.936592 169.732269,126.742996 
	C168.464264,130.546326 171.286285,133.596619 174.988297,135.243896 
	C176.655060,135.985535 178.586731,136.321335 180.007309,137.370544 
	C181.285629,138.314682 182.029617,139.982285 183.009277,141.330795 
	C181.421097,142.256592 179.842468,143.914520 178.242462,143.935410 
	C175.883011,143.966202 173.508316,142.831268 171.147186,142.194717 
	C168.106781,145.250702 168.927979,147.211639 172.704651,148.146088 
	C174.783264,148.660385 176.970413,149.078873 179.091171,149.009201 
	C183.648529,148.859512 187.838089,147.643478 188.958862,142.419647 
	C190.021194,137.468185 187.850418,134.081284 182.485428,131.982010 
M118.919106,141.293900 
	C117.714706,145.179871 116.510307,149.065842 115.323235,152.895889 
	C119.307999,154.769989 120.077560,152.518066 120.815704,150.174164 
	C124.013039,140.021362 127.237083,129.876907 130.401062,119.713730 
	C130.770889,118.525742 130.828857,117.240677 131.031403,116.000610 
	C130.570602,115.660690 130.109818,115.320778 129.649017,114.980858 
	C128.475922,116.199203 126.733940,117.218361 126.225792,118.669533 
	C123.695023,125.897148 121.488754,133.238388 118.919106,141.293900 
M109.538361,154.440048 
	C110.686844,152.943390 112.098694,151.557663 112.807022,149.875656 
	C112.994751,149.429886 111.094719,147.441467 110.013870,147.310272 
	C108.917679,147.177246 106.561722,148.681000 106.643600,149.093781 
	C107.003502,150.908264 108.045807,152.587387 109.538361,154.440048 
z"/>
<path fill="#FAEFF1" opacity="1.000000" stroke="none" 
	d="
M162.620407,131.734436 
	C158.572739,140.360138 154.814026,148.708939 150.691956,156.874313 
	C148.855957,160.511230 146.100494,163.789459 141.365250,162.937134 
	C139.804123,162.656128 138.521759,160.826584 137.111923,159.705093 
	C138.494949,159.120285 139.848572,158.130997 141.266632,158.027878 
	C145.232635,157.739487 149.898468,149.293579 148.099030,145.037659 
	C145.312408,138.446884 142.337357,131.935883 139.459839,125.383324 
	C138.803543,123.888840 138.219269,122.362732 137.503296,120.609871 
	C141.483002,119.073517 143.924973,119.801697 145.472534,123.804756 
	C147.442673,128.900848 149.837509,133.832748 152.588562,140.055267 
	C155.384201,133.850098 157.857498,128.724243 160.002853,123.464630 
	C161.329407,120.212410 163.258591,119.081276 167.367554,120.678947 
	C165.815842,124.284866 164.288635,127.833855 162.620407,131.734436 
z"/>
<path fill="#FAEDF0" opacity="1.000000" stroke="none" 
	d="
M182.835999,132.111511 
	C187.850418,134.081284 190.021194,137.468185 188.958862,142.419647 
	C187.838089,147.643478 183.648529,148.859512 179.091171,149.009201 
	C176.970413,149.078873 174.783264,148.660385 172.704651,148.146088 
	C168.927979,147.211639 168.106781,145.250702 171.147186,142.194717 
	C173.508316,142.831268 175.883011,143.966202 178.242462,143.935410 
	C179.842468,143.914520 181.421097,142.256592 183.009277,141.330795 
	C182.029617,139.982285 181.285629,138.314682 180.007309,137.370544 
	C178.586731,136.321335 176.655060,135.985535 174.988297,135.243896 
	C171.286285,133.596619 168.464264,130.546326 169.732269,126.742996 
	C170.667923,123.936592 173.706299,121.003937 176.508316,119.890671 
	C179.069519,118.873100 182.605988,120.050537 185.632294,120.659821 
	C186.323074,120.798897 187.363647,122.981117 187.047501,123.515167 
	C186.476074,124.480461 184.828354,125.645035 183.939560,125.432457 
	C181.031036,124.736801 177.282349,122.881294 176.202591,126.628990 
	C174.941986,131.004395 180.124619,130.396271 182.835999,132.111511 
z"/>
<path fill="#F9E9EC" opacity="1.000000" stroke="none" 
	d="
M119.043686,140.916763 
	C121.488754,133.238388 123.695023,125.897148 126.225792,118.669533 
	C126.733940,117.218361 128.475922,116.199203 129.649017,114.980858 
	C130.109818,115.320778 130.570602,115.660690 131.031403,116.000610 
	C130.828857,117.240677 130.770889,118.525742 130.401062,119.713730 
	C127.237083,129.876907 124.013039,140.021362 120.815704,150.174164 
	C120.077560,152.518066 119.307999,154.769989 115.323235,152.895889 
	C116.510307,149.065842 117.714706,145.179871 119.043686,140.916763 
z"/>
<path fill="#F7E1E5" opacity="1.000000" stroke="none" 
	d="
M109.189560,154.377808 
	C108.045807,152.587387 107.003502,150.908264 106.643600,149.093781 
	C106.561722,148.681000 108.917679,147.177246 110.013870,147.310272 
	C111.094719,147.441467 112.994751,149.429886 112.807022,149.875656 
	C112.098694,151.557663 110.686844,152.943390 109.189560,154.377808 
z"/>
</svg>